<svg viewBox="0 0 24 24" xmlns="http://www.w3.org/2000/svg" xmlns:xlink="http://www.w3.org/1999/xlink" width="24.000000" height="24.000000" fill="none" customFrame="#000000">
	<defs>
		<clipPath id="clipPath_1">
			<rect width="16.000000" height="16.000000" x="4.000000" y="4.000000" fill="rgb(255,255,255)" />
		</clipPath>
	</defs>
	<rect id="Solid/Interface/Favorite" width="24.000000" height="24.000000" x="0.000000" y="0.000000" />
	<g id="ic:baseline-favorite-border" clip-path="url(#clipPath_1)" customFrame="url(#clipPath_1)">
		<rect id="ic:baseline-favorite-border" width="16.000000" height="16.000000" x="4.000000" y="4.000000" />
		<path id="Vector" d="M11.0913 6.69176C10.5066 6.33406 9.82219 6.12793 9.11998 6.12793C7.14878 6.12793 5.59998 7.67673 5.59998 9.64793C5.59998 12.0671 7.77598 14.0383 11.072 17.0335L12 17.8719L12.928 17.0271C16.224 14.0383 18.4 12.0671 18.4 9.64793C18.4 7.67673 16.8512 6.12793 14.88 6.12793C14.1778 6.12793 13.4934 6.33406 12.9086 6.69176C12.566 6.90132 12.2577 7.1629 12 7.46553C11.7423 7.1629 11.4339 6.90132 11.0913 6.69176ZM11.9969 16.252L12.1202 16.1398L12.1239 16.1363L12.1249 16.1354L12.1259 16.1345L12.13 16.1308C13.1716 15.1863 13.9102 14.5042 14.3458 14.0845C15.0332 13.4222 15.5757 12.8479 15.9732 12.3616C16.4025 11.8364 16.7159 11.3527 16.9134 10.9105C17.1044 10.4827 17.2 10.0618 17.2 9.64793C17.2 9.40864 17.1673 9.17908 17.1019 8.95925C17.0786 8.88089 17.0511 8.80376 17.0195 8.72787C16.9586 8.58184 16.8844 8.44497 16.7969 8.31725C16.7188 8.2033 16.63 8.09663 16.5306 7.99726C16.4313 7.89787 16.3246 7.80911 16.2106 7.73099C16.0829 7.64345 15.946 7.56926 15.8 7.50842C15.7242 7.47681 15.6471 7.44935 15.5687 7.42604C15.3489 7.36063 15.1193 7.32793 14.88 7.32793C14.7735 7.32793 14.668 7.33467 14.5633 7.34815C14.3016 7.38184 14.0453 7.45764 13.7944 7.57555C13.5576 7.68684 13.3457 7.82594 13.1585 7.99284C13.0715 8.0704 12.9899 8.15397 12.9136 8.24354L12 9.31641L11.0864 8.24354C11.0101 8.15397 10.9285 8.07041 10.8415 7.99286C10.6543 7.82595 10.4423 7.68684 10.2055 7.57555C9.95466 7.45764 9.69838 7.38184 9.43667 7.34815C9.33197 7.33467 9.22641 7.32793 9.11998 7.32793C8.88067 7.32793 8.65109 7.36063 8.43124 7.42604C8.35289 7.44935 8.27579 7.47681 8.19991 7.50842C8.05389 7.56927 7.91702 7.64346 7.78931 7.73101C7.67535 7.80913 7.56868 7.89788 7.4693 7.99726C7.36992 8.09664 7.28117 8.20331 7.20305 8.31727C7.11551 8.44498 7.04131 8.58185 6.98047 8.72787C6.94886 8.80374 6.9214 8.88084 6.89809 8.95918C6.83268 9.17903 6.79998 9.40862 6.79998 9.64793C6.79998 10.0611 6.89517 10.4813 7.08556 10.9084C7.28234 11.3498 7.59464 11.8328 8.02247 12.3572C8.41868 12.8428 8.9594 13.4165 9.64462 14.078C10.0789 14.4973 10.8153 15.1788 11.8537 16.1225L11.8601 16.1282L11.8632 16.1311L11.8664 16.134L11.8679 16.1354L11.8695 16.1368L11.8711 16.1383L11.8727 16.1397L11.8758 16.1426L11.8774 16.144L11.879 16.1454L11.9969 16.252Z" fill="rgb(89,89,89)" fill-rule="evenodd" />
	</g>
</svg>
