<svg viewBox="0 0 24 24" xmlns="http://www.w3.org/2000/svg" xmlns:xlink="http://www.w3.org/1999/xlink" width="24.000000" height="24.000000" fill="none" customFrame="url(#clipPath_0)">
	<defs>
		<clipPath id="clipPath_0">
			<rect width="24.000000" height="24.000000" x="0.000000" y="0.000000" rx="12.000000" fill="rgb(255,255,255)" />
		</clipPath>
	</defs>
	<rect id="logo-sign" width="24.000000" height="24.000000" x="0.000000" y="0.000000" rx="12.000000" fill="rgb(239.062,27.8906,48.7471)" />
	<g id="Group 159">
		<path id="Vector" d="M14.375 9.06923C14.375 9.9731 13.6521 10.7058 12.7603 10.7058C11.8685 10.7058 11.1455 9.9731 11.1455 9.06923C11.1455 8.16535 11.8685 7.43262 12.7603 7.43262C13.6521 7.43262 14.375 8.16535 14.375 9.06923Z" fill="rgb(255,255,255)" fill-rule="nonzero" />
		<path id="Vector" d="M8.10128 10.9946C7.55607 10.9075 7.29276 11.6382 7.76823 11.9189L9.95988 13.2126L4.87996 19.9598C4.65789 20.2547 5.06124 20.6124 5.32748 20.3566L12.629 13.341C13.2243 12.769 12.9092 11.7627 12.0939 11.6325L8.10128 10.9946Z" fill="rgb(255,255,255)" fill-rule="nonzero" />
		<path id="Vector" d="M12.2835 14.804L10.5771 16.4455L11.729 17.9868L9.83715 19.0904C9.53105 19.269 9.73313 19.7374 10.0731 19.6373L13.3695 18.6665C14.0243 18.4736 14.2977 17.6958 13.9075 17.1357L12.2835 14.804Z" fill="rgb(255,255,255)" fill-rule="nonzero" />
		<path id="Vector" d="M0.546701 13.7863C0.546701 12.3062 0.858309 10.9819 1.40362 9.73545L0.702505 9.42384C0.157193 11.2156 0.0792912 13.1631 0.4688 14.9549L0.624604 14.9549C0.546701 14.5654 0.546701 14.1758 0.546701 13.7863ZM22.5929 8.80064L19.321 10.0471C19.9443 11.5272 20.178 13.241 20.0222 14.9549L22.9825 14.9549C23.372 12.9294 23.2941 10.7482 22.5929 8.80064ZM18.0746 2.958L16.0491 5.91827C17.2177 6.77518 18.2304 7.94372 18.9315 9.26805L22.2813 8.02161C21.4244 5.91827 19.9443 4.20442 18.0746 2.958ZM4.8313 3.34751L5.99982 5.06135C7.32415 4.36023 8.72639 4.04863 10.3623 4.04863L10.3623 1.16626C8.25898 1.39997 6.38933 2.17898 4.8313 3.34751ZM0.936211 8.64483L1.79313 8.95644C2.65005 7.47631 3.81858 6.30778 5.22081 5.45085L4.13018 3.89283C2.72795 5.21716 1.63733 6.77518 0.936211 8.64483Z" opacity="0" fill="rgb(242,42,82)" fill-rule="evenodd" />
		<path id="Vector" d="M15.3481 5.4508L17.3735 2.49054C15.5039 1.47782 13.4005 0.932505 11.2193 1.08831L11.2193 4.04858C13.0018 4.26462 13.8958 4.5908 15.3481 5.4508Z" opacity="0" fill="rgb(242,42,82)" fill-rule="nonzero" />
		<g id="Group 366" opacity="0">
			<path id="Vector" d="M0.548114 13.731C0.548114 12.3753 0.808404 11.1497 1.26964 9.9949C1.34362 9.80969 1.26162 9.59693 1.07937 9.51593L1.07937 9.51593C0.880263 9.42744 0.648171 9.53318 0.592681 9.74388C0.148004 11.4323 0.107066 13.2358 0.46987 14.9047L0.626359 14.9047C0.548114 14.5135 0.548114 14.1223 0.548114 13.731Z" fill="rgb(239.062,27.8906,48.7471)" fill-rule="evenodd" />
			<path id="Vector" d="M1.12453 8.10141C1.01752 8.35545 1.15085 8.64346 1.4099 8.73767L1.4099 8.73767C1.63568 8.81977 1.88674 8.72731 2.01543 8.52445C2.68367 7.471 3.51695 6.58601 4.48438 5.86946C4.88277 5.57438 5.00258 5.01529 4.71828 4.60914L4.71828 4.60914C4.41745 4.17939 3.8032 4.11563 3.44831 4.50194C2.48221 5.55359 1.69688 6.74266 1.12453 8.10141Z" fill="rgb(239.062,27.8906,48.7471)" fill-rule="evenodd" />
			<path id="Vector" d="M5.6394 2.70544C5.18616 2.98923 5.08879 3.59422 5.39004 4.03605L5.52143 4.22876C5.8083 4.64949 6.36336 4.78083 6.83575 4.5907C7.6441 4.26536 8.49073 4.07119 9.40794 3.99202C9.95818 3.94452 10.4069 3.50275 10.4069 2.95046L10.4069 2.17268C10.4069 1.57667 9.88727 1.1093 9.30391 1.23145C7.96668 1.51143 6.73769 2.01774 5.6394 2.70544Z" fill="rgb(239.062,27.8906,48.7471)" fill-rule="evenodd" />
			<path id="Vector" d="M14.579 4.90197C15.0473 5.14348 15.6284 5.02037 15.926 4.58552L16.805 3.30084C17.14 2.81127 16.9786 2.13566 16.4343 1.89972C15.0969 1.31995 13.6623 0.979034 12.1807 0.952159C11.6562 0.942643 11.2502 1.38333 11.2502 1.90797L11.2502 3.06402C11.2502 3.56977 11.6292 3.99012 12.1272 4.0785C13.0736 4.24648 13.7738 4.48668 14.579 4.90197Z" fill="rgb(239.062,27.8906,48.7471)" fill-rule="nonzero" />
			<path id="Vector" d="M16.5364 5.08004L17.4663 3.72093C17.7755 3.26901 18.3938 3.14647 18.8237 3.48574C20.0574 4.45953 21.0815 5.65884 21.815 7.05662C22.0772 7.55629 21.8119 8.15419 21.283 8.35098L19.707 8.93741C19.2366 9.11244 18.7137 8.90843 18.4405 8.48738C17.9601 7.74698 17.3826 7.07075 16.7396 6.49018C16.3391 6.1286 16.2317 5.52534 16.5364 5.08004Z" fill="rgb(239.062,27.8906,48.7471)" fill-rule="nonzero" />
			<path id="Vector" d="M20.2434 9.65659L21.6105 9.1358C22.1333 8.93663 22.7224 9.2047 22.8577 9.74757C23.2128 11.1721 23.27 12.6815 23.0839 14.139C23.0232 14.6146 22.607 14.9545 22.1276 14.9545L21.0753 14.9545C20.4873 14.9545 20.0303 14.4489 20.027 13.8608C20.0215 12.8759 19.8864 11.9074 19.6215 11.0003C19.4629 10.4571 19.7146 9.85802 20.2434 9.65659Z" fill="rgb(239.062,27.8906,48.7471)" fill-rule="nonzero" />
		</g>
	</g>
	<g id="Group">
		<path id="Vector" d="M15.0484 4.27958C14.962 4.52582 15.0802 4.79571 15.3129 4.91399C16.1239 5.32635 16.8787 5.87492 17.5421 6.56368C17.9206 6.96011 18.249 7.37848 18.5354 7.81049C18.6876 8.04 18.9919 8.1199 19.2295 7.98063L21.4948 6.65256C21.7388 6.50957 21.8165 6.19228 21.6548 5.96038C21.4659 5.68949 21.2609 5.4205 21.0399 5.15699C19.7887 3.6595 18.3928 2.38117 16.5047 1.62633C16.2502 1.52457 15.9672 1.66311 15.8764 1.92176L15.0484 4.27958Z" fill="rgb(255,255,255)" fill-rule="nonzero" />
		<path id="Vector" d="M3.00662 7.26647C3.20963 7.41969 3.49458 7.39544 3.67787 7.21911C4.70443 6.23158 6.17783 5.1942 7.27379 4.70929C7.31531 4.69129 7.35733 4.6733 7.39975 4.6554C7.67364 4.53988 7.80694 4.21938 7.67928 3.95093L7.05939 2.64744C6.93739 2.39089 6.62573 2.28644 6.38121 2.43104C4.9444 3.28073 3.91312 4.35396 3.17528 5.31672C2.91952 5.65274 2.69043 5.98876 2.48315 6.32726C2.3524 6.54078 2.41086 6.8168 2.6107 6.96763L3.00662 7.26647Z" fill="rgb(255,255,255)" fill-rule="nonzero" />
		<path id="Vector" d="M15.0755 1.74325C15.1735 1.46515 15.0109 1.16214 14.7213 1.10678C14.1507 0.997699 13.5389 0.930705 12.8805 0.911344C10.9769 0.843092 9.38523 1.13911 8.05705 1.63289C7.791 1.7318 7.67563 2.03905 7.79741 2.29545L8.5373 3.85329C8.63954 4.06854 8.87918 4.18035 9.11259 4.13232C10.5827 3.82977 12.1656 3.86182 13.6605 4.27694C13.924 4.35011 14.2049 4.21443 14.2958 3.95649L15.0755 1.74325Z" fill="rgb(255,255,255)" fill-rule="nonzero" />
		<path id="Vector" d="M2.80781 8.19261C2.82053 8.17749 2.81361 8.15381 2.79787 8.14188L2.37301 7.81986C2.11933 7.62759 1.7521 7.719 1.63266 8.01405C0.246691 11.4378 0.84242 14.5944 0.941154 15.0551C0.94869 15.0903 0.979382 15.1128 1.01535 15.1128L1.01535 15.1128C1.06455 15.1128 1.10204 15.068 1.09439 15.0194C1.00296 14.4386 0.626789 11.245 2.80433 8.19702C2.80556 8.19529 2.80645 8.19424 2.80781 8.19261L2.80781 8.19261Z" fill="rgb(255,255,255)" fill-rule="nonzero" />
		<path id="Vector" d="M19.5854 8.7349C19.3608 8.86664 19.2762 9.14872 19.3791 9.38793C20.2883 11.5015 20.4092 13.612 20.4101 14.5739C20.4103 14.8649 20.6437 15.1128 20.9347 15.1128L23.2209 15.1128C23.4563 15.1128 23.6581 14.9482 23.6906 14.7151C23.8376 13.6593 24.07 10.655 22.5955 7.57207C22.473 7.316 22.1565 7.22693 21.9117 7.37054L19.5854 8.7349Z" fill="rgb(255,255,255)" fill-rule="nonzero" />
	</g>
</svg>
