<svg viewBox="0 0 24 24" xmlns="http://www.w3.org/2000/svg" xmlns:xlink="http://www.w3.org/1999/xlink" width="24.000000" height="24.000000" fill="none" customFrame="#000000">
	<defs>
		<clipPath id="clipPath_2">
			<rect width="16.000000" height="16.000000" x="4.000000" y="4.000000" fill="rgb(255,255,255)" />
		</clipPath>
	</defs>
	<rect id="Solid/Interface/Notification" width="24.000000" height="24.000000" x="0.000000" y="0.000000" />
	<g id="mi:notification" clip-path="url(#clipPath_2)" customFrame="url(#clipPath_2)">
		<rect id="mi:notification" width="16.000000" height="16.000000" x="4.000000" y="4.000000" />
		<g id="Group">
			<path id="Vector" d="M10.7394 6.04978C10.841 5.79869 11.0152 5.58366 11.2398 5.43225C11.4644 5.28084 11.7291 5.19995 12 5.19995C12.2708 5.19995 12.5355 5.28084 12.7601 5.43225C12.9847 5.58366 13.1589 5.79869 13.2605 6.04978C14.266 6.32629 15.1529 6.92523 15.785 7.75459C16.417 8.58395 16.7594 9.59788 16.7595 10.6407L16.7595 13.8343L18.0051 15.7027C18.0734 15.8051 18.1126 15.9241 18.1186 16.0471C18.1246 16.17 18.0971 16.2923 18.039 16.4009C17.9809 16.5094 17.8945 16.6001 17.7889 16.6634C17.6833 16.7266 17.5625 16.76 17.4394 16.76L14.3559 16.76C14.274 17.3265 13.9908 17.8445 13.5581 18.2191C13.1255 18.5937 12.5723 18.8 12 18.8C11.4276 18.8 10.8744 18.5937 10.4418 18.2191C10.0091 17.8445 9.72587 17.3265 9.644 16.76L6.56052 16.76C6.43743 16.76 6.31664 16.7266 6.21103 16.6634C6.10543 16.6001 6.01898 16.5094 5.96091 16.4009C5.90284 16.2923 5.87532 16.17 5.88129 16.0471C5.88727 15.9241 5.9265 15.8051 5.99482 15.7027L7.24045 13.8343L7.24045 10.6407C7.24045 8.44857 8.7227 6.60188 10.7394 6.04978ZM10.7569 16.76C10.8868 17.1826 11.0742 17.4409 11.2764 17.584C11.4486 17.7059 11.7893 17.7713 12.0003 17.7713C12.2113 17.7713 12.5765 17.7313 12.8347 17.5486C13.1624 17.3167 13.2485 16.959 13.3187 16.76L10.7569 16.76ZM12 6.85273C11.0983 6.85273 9.9363 7.28174 9.29874 7.91929C8.66118 8.55685 8.30301 9.73901 8.30301 10.6407L8.30301 14.0403C8.30304 14.1746 8.26329 14.3059 8.18878 14.4177L7.24045 15.7027L16.7595 15.7027L15.8042 14.4177C15.73 14.3058 15.6905 14.1745 15.6907 14.0403L15.6907 10.6407C15.6907 9.73901 15.3325 8.55685 14.695 7.91929C14.0574 7.28174 12.9016 6.85273 12 6.85273Z" fill="rgb(89,89,89)" fill-rule="nonzero" />
			<path id="Vector" d="M10.7394 6.04978C10.841 5.79869 11.0152 5.58366 11.2398 5.43225C11.4644 5.28084 11.7291 5.19995 12 5.19995C12.2708 5.19995 12.5355 5.28084 12.7601 5.43225C12.9847 5.58366 13.1589 5.79869 13.2605 6.04978C14.266 6.32629 15.1529 6.92523 15.785 7.75459C16.417 8.58395 16.7594 9.59788 16.7595 10.6407L16.7595 13.8343L18.0051 15.7027C18.0734 15.8051 18.1126 15.9241 18.1186 16.0471C18.1246 16.17 18.0971 16.2923 18.039 16.4009C17.9809 16.5094 17.8945 16.6001 17.7889 16.6634C17.6833 16.7266 17.5625 16.76 17.4394 16.76L14.3559 16.76C14.274 17.3265 13.9908 17.8445 13.5581 18.2191C13.1255 18.5937 12.5723 18.8 12 18.8C11.4276 18.8 10.8744 18.5937 10.4418 18.2191C10.0091 17.8445 9.72587 17.3265 9.644 16.76L6.56052 16.76C6.43743 16.76 6.31664 16.7266 6.21103 16.6634C6.10543 16.6001 6.01898 16.5094 5.96091 16.4009C5.90284 16.2923 5.87532 16.17 5.88129 16.0471C5.88727 15.9241 5.9265 15.8051 5.99482 15.7027L7.24045 13.8343L7.24045 10.6407C7.24045 8.44857 8.7227 6.60188 10.7394 6.04978Z" opacity="0" fill="rgb(195.681,205.034,223.191)" fill-rule="nonzero" />
		</g>
	</g>
</svg>
